<svg xmlns="http://www.w3.org/2000/svg" viewBox="0 0 22.98 24.56"><defs><style>.cls-1{fill:#f6b461;}.cls-2{fill:#e26d4a;}.cls-3{fill:#f5a79b;}</style></defs><g id="Laag_2" data-name="Laag 2"><g id="Laag_1-2" data-name="Laag 1"><g id="Group_55" data-name="Group 55"><g id="Page-1"><g id="_038---Favourite-File" data-name=" 038---Favourite-File"><path id="Shape" class="cls-1" d="M14.41,22.6h3.5a.39.39,0,0,0,.28-.11l4.67-4.68a.36.36,0,0,0,.12-.28V2A2,2,0,0,0,21,0H5.44A2,2,0,0,0,3.49,2V8.57a.4.4,0,0,0,.41.37.39.39,0,0,0,.37-.37V2A1.17,1.17,0,0,1,5.44.78H21A1.17,1.17,0,0,1,22.2,2h0v15.2H19.47a2,2,0,0,0-1.95,2v2.73H14.41a.38.38,0,0,0-.41.37.39.39,0,0,0,.37.41h0Zm5.06-4.68h2.18L18.3,21.27V19.1a1.17,1.17,0,0,1,1.17-1.17h0Z"/><path id="Shape-2" class="cls-1" d="M6.22,3.12H7a.39.39,0,0,0,.41-.37A.38.38,0,0,0,7,2.34H6.22a.39.39,0,0,0-.41.37.4.4,0,0,0,.37.41Z"/><path id="Shape-3" class="cls-1" d="M20.25,2.34H8.56a.39.39,0,0,0,0,.78H20.25a.39.39,0,0,0,.41-.37.38.38,0,0,0-.37-.41Z"/><path id="Shape-4" class="cls-1" d="M6.22,5.46H7a.4.4,0,0,0,.37-.41A.39.39,0,0,0,7,4.68H6.22a.39.39,0,0,0-.41.37.4.4,0,0,0,.37.41Z"/><path id="Shape-5" class="cls-1" d="M8.56,5.46h9a.39.39,0,0,0,0-.78h-9a.39.39,0,0,0-.37.41A.4.4,0,0,0,8.56,5.46Z"/><path id="Shape-6" class="cls-1" d="M6.22,7.79H7A.39.39,0,1,0,7,7H6.22a.38.38,0,0,0-.41.36.39.39,0,0,0,.37.41Z"/><path id="Shape-7" class="cls-1" d="M8.56,7.79H14.8a.39.39,0,1,0,0-.77H8.56a.39.39,0,0,0,0,.77Z"/><path id="Shape-8" class="cls-1" d="M21.42,8.18a.39.39,0,1,0-.78,0v5.5a.39.39,0,0,0,.78,0V8.18Z"/><path id="Shape-9" class="cls-1" d="M21,14.81a.39.39,0,0,0-.39.39V16a.4.4,0,0,0,.37.41.39.39,0,0,0,.41-.37V15.2A.38.38,0,0,0,21,14.81Z"/><path id="Shape-10" class="cls-1" d="M9,23.36a.33.33,0,0,0,.24,0c5.51-1.77,7.46-5.8,7.46-8.72,0-2.73-1.75-4.86-4-4.86a5.23,5.23,0,0,0-3.6,1.43,5.27,5.27,0,0,0-3.6-1.43c-2.24,0-4,2.13-4,4.86,0,2.92,2,7,7.47,8.72ZM5.56,10.56A4.51,4.51,0,0,1,8.86,12a.39.39,0,0,0,.55.05L9.46,12a4.5,4.5,0,0,1,3.3-1.46c1.8,0,3.21,1.79,3.21,4.08,0,2.63-1.79,6.28-6.81,7.94-5-1.66-6.81-5.31-6.81-7.94,0-2.29,1.41-4.08,3.21-4.08Z"/></g></g><g id="heart-2"><path id="Path_1" data-name="Path 1" class="cls-2" d="M18,14a6.7,6.7,0,0,1-1.78,4.37,39.14,39.14,0,0,1-4.46,4.18L9.67,24.29a1.08,1.08,0,0,1-.69.27H9a1.07,1.07,0,0,1-.7-.27c-.72-.63-1.42-1.23-2-1.75h0a39.28,39.28,0,0,1-4.46-4.19A6.7,6.7,0,0,1,0,14a5.62,5.62,0,0,1,1.42-3.84A4.83,4.83,0,0,1,5,8.58a4.51,4.51,0,0,1,2.82,1A5.85,5.85,0,0,1,9,10.74H9a6.07,6.07,0,0,1,1.14-1.18,4.51,4.51,0,0,1,2.82-1,4.79,4.79,0,0,1,3.59,1.56A5.63,5.63,0,0,1,18,14Z"/><path id="Path_2" data-name="Path 2" class="cls-3" d="M18,14a6.7,6.7,0,0,1-1.78,4.37,39.14,39.14,0,0,1-4.46,4.18L9.67,24.29a1.08,1.08,0,0,1-.69.27V10.73a6.07,6.07,0,0,1,1.14-1.18,4.51,4.51,0,0,1,2.82-1,4.79,4.79,0,0,1,3.59,1.56A5.63,5.63,0,0,1,18,14Z"/></g></g></g></g></svg>