<svg xmlns="http://www.w3.org/2000/svg" viewBox="0 0 57.01 50.72"><defs><style>.cls-1{fill:#e26d4a;}.cls-2{fill:#f5a79b;}.cls-3,.cls-4{isolation:isolate;}.cls-4{font-size:7.92px;fill:#fff;font-family:Montserrat-ExtraBold, Montserrat;font-weight:800;}.cls-5{letter-spacing:-0.01em;}.cls-6{letter-spacing:0em;}</style></defs><g id="Laag_2" data-name="Laag 2"><g id="Laag_1-2" data-name="Laag 1"><g id="heart-2"><path id="Path_1" data-name="Path 1" class="cls-1" d="M57,17.13C57,22,55.21,26.37,51.36,31,47.91,35.18,43,39.41,37.2,44.3c-2,1.68-4.18,3.57-6.49,5.59a3.38,3.38,0,0,1-2.18.83h0a3.37,3.37,0,0,1-2.21-.83c-2.3-2-4.52-3.91-6.48-5.58h0C14.07,39.41,9.11,35.18,5.66,31,1.8,26.37,0,22,0,17.13A17.88,17.88,0,0,1,4.52,5,15.35,15.35,0,0,1,15.93,0a14.41,14.41,0,0,1,9,3.09,18.53,18.53,0,0,1,3.62,3.78l0,0a17.83,17.83,0,0,1,3.6-3.76A14.4,14.4,0,0,1,41.08,0,15.34,15.34,0,0,1,52.49,5,17.83,17.83,0,0,1,57,17.13Z"/><path id="Path_2" data-name="Path 2" class="cls-2" d="M57,17.13C57,22,55.21,26.37,51.36,31,47.91,35.18,43,39.41,37.2,44.3c-2,1.68-4.18,3.57-6.49,5.59a3.38,3.38,0,0,1-2.18.83V6.85a18.07,18.07,0,0,1,3.6-3.76A14.38,14.38,0,0,1,41.08,0,15.34,15.34,0,0,1,52.49,5,17.83,17.83,0,0,1,57,17.13Z"/></g><g id="INLOGGEN" class="cls-3"><text class="cls-4" transform="translate(6.43 25.5)">IN<tspan class="cls-5" x="9.07" y="0">L</tspan><tspan class="cls-6" x="13.82" y="0">OGGEN</tspan></text></g></g></g></svg>