<?xml version="1.0" encoding="utf-8"?>
<svg xmlns="http://www.w3.org/2000/svg" xmlns:xlink="http://www.w3.org/1999/xlink" style="margin: auto; background: none; display: block; shape-rendering: crispedges;" width="261px" height="261px" viewBox="0 0 100 100" preserveAspectRatio="xMidYMid">
<g transform="rotate(0 50 50)">
  <rect x="48" y="28" rx="2" ry="6" width="4" height="12" fill="#f8626e">
    <animate attributeName="opacity" values="1;0" keyTimes="0;1" dur="1.4925373134328357s" begin="-1.3059701492537312s" repeatCount="indefinite"></animate>
  </rect>
</g><g transform="rotate(45 50 50)">
  <rect x="48" y="28" rx="2" ry="6" width="4" height="12" fill="#f8626e">
    <animate attributeName="opacity" values="1;0" keyTimes="0;1" dur="1.4925373134328357s" begin="-1.1194029850746268s" repeatCount="indefinite"></animate>
  </rect>
</g><g transform="rotate(90 50 50)">
  <rect x="48" y="28" rx="2" ry="6" width="4" height="12" fill="#f8626e">
    <animate attributeName="opacity" values="1;0" keyTimes="0;1" dur="1.4925373134328357s" begin="-0.9328358208955223s" repeatCount="indefinite"></animate>
  </rect>
</g><g transform="rotate(135 50 50)">
  <rect x="48" y="28" rx="2" ry="6" width="4" height="12" fill="#f8626e">
    <animate attributeName="opacity" values="1;0" keyTimes="0;1" dur="1.4925373134328357s" begin="-0.7462686567164178s" repeatCount="indefinite"></animate>
  </rect>
</g><g transform="rotate(180 50 50)">
  <rect x="48" y="28" rx="2" ry="6" width="4" height="12" fill="#f8626e">
    <animate attributeName="opacity" values="1;0" keyTimes="0;1" dur="1.4925373134328357s" begin="-0.5597014925373134s" repeatCount="indefinite"></animate>
  </rect>
</g><g transform="rotate(225 50 50)">
  <rect x="48" y="28" rx="2" ry="6" width="4" height="12" fill="#f8626e">
    <animate attributeName="opacity" values="1;0" keyTimes="0;1" dur="1.4925373134328357s" begin="-0.3731343283582089s" repeatCount="indefinite"></animate>
  </rect>
</g><g transform="rotate(270 50 50)">
  <rect x="48" y="28" rx="2" ry="6" width="4" height="12" fill="#f8626e">
    <animate attributeName="opacity" values="1;0" keyTimes="0;1" dur="1.4925373134328357s" begin="-0.18656716417910446s" repeatCount="indefinite"></animate>
  </rect>
</g><g transform="rotate(315 50 50)">
  <rect x="48" y="28" rx="2" ry="6" width="4" height="12" fill="#f8626e">
    <animate attributeName="opacity" values="1;0" keyTimes="0;1" dur="1.4925373134328357s" begin="0s" repeatCount="indefinite"></animate>
  </rect>
</g>
<!-- [ldio] generated by https://loading.io/ --></svg>