<svg xmlns="http://www.w3.org/2000/svg" viewBox="0 0 27.81 24.74"><defs><style>.cls-1{fill:#e26d4a;}.cls-2{fill:#f5a79b;}</style></defs><g id="Laag_2" data-name="Laag 2"><g id="Laag_1-2" data-name="Laag 1"><path id="Path_1" data-name="Path 1" class="cls-1" d="M27.81,8.36a10.27,10.27,0,0,1-2.76,6.77,57.91,57.91,0,0,1-6.9,6.48c-.95.82-2,1.74-3.16,2.73a1.63,1.63,0,0,1-1.07.4h0a1.61,1.61,0,0,1-1.07-.4c-1.13-1-2.21-1.91-3.17-2.72h0a59.53,59.53,0,0,1-6.9-6.48A10.37,10.37,0,0,1,0,8.36,8.66,8.66,0,0,1,2.21,2.42,7.45,7.45,0,0,1,7.77,0a7,7,0,0,1,4.37,1.51,9.35,9.35,0,0,1,1.77,1.84h0a8.68,8.68,0,0,1,1.75-1.83A7,7,0,0,1,20,0,7.52,7.52,0,0,1,25.6,2.42,8.66,8.66,0,0,1,27.81,8.36Z"/><path id="Path_2" data-name="Path 2" class="cls-2" d="M27.81,8.36a10.27,10.27,0,0,1-2.76,6.77,57.91,57.91,0,0,1-6.9,6.48c-.95.82-2,1.74-3.16,2.73a1.63,1.63,0,0,1-1.07.4V3.34a9,9,0,0,1,1.76-1.83A7,7,0,0,1,20,0a7.45,7.45,0,0,1,5.57,2.42A8.7,8.7,0,0,1,27.81,8.36Z"/></g></g></svg>