<svg xmlns="http://www.w3.org/2000/svg" width="164.592" height="164.592" viewBox="0 0 164.592 164.592"><path d="M85.671,3.375a82.3,82.3,0,1,0,82.3,82.3A82.283,82.283,0,0,0,85.671,3.375Zm42.137,59.546-52.9,53.136h-.04a7.145,7.145,0,0,1-4.59,2.176,6.927,6.927,0,0,1-4.629-2.255L43.494,93.821a1.576,1.576,0,0,1,0-2.255l7.043-7.043a1.53,1.53,0,0,1,2.216,0L70.32,102.091l48.27-48.626a1.562,1.562,0,0,1,1.108-.475h0a1.437,1.437,0,0,1,1.108.475l6.924,7.161A1.56,1.56,0,0,1,127.808,62.921Z" transform="translate(-3.375 -3.375)" fill="#f8626e"/></svg>