<svg xmlns="http://www.w3.org/2000/svg" viewBox="0 0 19.73 23.65"><defs><style>.cls-1{fill:#cae3e6;}.cls-2{fill:#9cb2b7;}</style></defs><g id="Laag_2" data-name="Laag 2"><g id="Laag_1-2" data-name="Laag 1"><path id="Path_22" data-name="Path 22" class="cls-1" d="M15.41,5.69a5.5,5.5,0,0,1-1.67,4,5.49,5.49,0,0,1-4,1.67h0a5.48,5.48,0,0,1-4-1.67A5.5,5.5,0,0,1,4,5.69a5.48,5.48,0,0,1,1.67-4A5.48,5.48,0,0,1,9.71,0h0a5.5,5.5,0,0,1,4,1.67A5.52,5.52,0,0,1,15.41,5.69Z"/><path id="Path_23" data-name="Path 23" class="cls-1" d="M19.72,19.57a3.92,3.92,0,0,1-1.16,3,4.17,4.17,0,0,1-3,1.1H4.17a4.17,4.17,0,0,1-3-1.1,4,4,0,0,1-1.17-3c0-.47,0-.94.05-1.4a14.8,14.8,0,0,1,.19-1.49,11,11,0,0,1,.37-1.5,7,7,0,0,1,.62-1.4,5,5,0,0,1,.93-1.21,4,4,0,0,1,1.34-.84,4.49,4.49,0,0,1,1.7-.31,1.68,1.68,0,0,1,.93.39l1,.62A5.34,5.34,0,0,0,8.34,13a4.94,4.94,0,0,0,1.37.25h.16A5.26,5.26,0,0,0,11.39,13a5.59,5.59,0,0,0,1.25-.55l1-.62a1.71,1.71,0,0,1,.93-.39,4.49,4.49,0,0,1,1.7.31,4,4,0,0,1,1.34.84,5,5,0,0,1,.93,1.21,7,7,0,0,1,.62,1.4,11,11,0,0,1,.37,1.5,14.8,14.8,0,0,1,.19,1.49C19.7,18.63,19.72,19.1,19.72,19.57Z"/><path id="Path_24" data-name="Path 24" class="cls-2" d="M9.72,11.39h0V0h0a5.52,5.52,0,0,1,4,1.67,5.51,5.51,0,0,1,1.66,4,5.53,5.53,0,0,1-1.66,4A5.56,5.56,0,0,1,9.72,11.39Z"/><path id="Path_25" data-name="Path 25" class="cls-2" d="M19.73,19.57a4,4,0,0,1-1.17,3,4.16,4.16,0,0,1-3,1.1H9.72V13.23h.15A5.2,5.2,0,0,0,11.39,13a5.59,5.59,0,0,0,1.25-.55l1-.62a1.71,1.71,0,0,1,.93-.39,4.58,4.58,0,0,1,1.71.31,4,4,0,0,1,1.33.84,5,5,0,0,1,.93,1.21,7,7,0,0,1,.62,1.4,11,11,0,0,1,.37,1.5,14.8,14.8,0,0,1,.19,1.49C19.71,18.63,19.72,19.1,19.73,19.57Z"/></g></g></svg>